<?xml version="1.0" encoding="iso-8859-1"?>
<!-- Generator: Adobe Illustrator 18.1.1, SVG Export Plug-In . SVG Version: 6.00 Build 0)  -->
<svg version="1.1" id="Capa_1" xmlns="http://www.w3.org/2000/svg" xmlns:xlink="http://www.w3.org/1999/xlink" x="0px" y="0px" width="40px" height="40px"
	 viewBox="0 0 237.998 237.998" style="enable-background:new 0 0 237.998 237.998;" xml:space="preserve">
<g>
	<path style="fill:#6b5cd9;" d="M200.428,58.206c7.564-0.874,19.018-2.508,37.57-5.091c-18.558-2.54-30.22-4.071-37.586-5
		c-0.92-7.888-2.502-19.016-5.085-37.575c-2.536,18.562-3.72,29.896-5.005,37.583c-7.413,0.92-19.019,2.508-37.578,5.098
		c18.568,2.537,30.369,4.009,37.586,4.995c0.975,7.1,2.514,19.012,5.11,37.565C197.971,77.226,199.492,65.622,200.428,58.206
		L200.428,58.206z"/>
	<path style="fill:#6b5cd9;" d="M47.683,58.206c7.564-0.874,19.017-2.508,37.571-5.091c-18.558-2.54-30.221-4.071-37.586-5
		c-0.921-7.888-2.503-19.016-5.086-37.575c-2.536,18.562-3.718,29.896-5.004,37.583C30.165,49.043,18.559,50.631,0,53.221
		c18.568,2.537,30.369,4.009,37.586,4.995c0.974,7.1,2.512,19.012,5.109,37.565C45.227,77.226,46.747,65.622,47.683,58.206
		L47.683,58.206z"/>
	<path style="fill:#6b5cd9;" d="M47.683,189.883c7.564-0.874,19.017-2.508,37.571-5.092c-18.558-2.539-30.221-4.07-37.586-5
		c-0.921-7.887-2.503-19.014-5.086-37.574c-2.536,18.562-3.718,29.896-5.004,37.583c-7.413,0.921-19.019,2.508-37.578,5.098
		c18.568,2.537,30.369,4.01,37.586,4.995c0.974,7.1,2.512,19.012,5.109,37.566C45.227,208.902,46.747,197.299,47.683,189.883z"/>
	<path style="fill:#6b5cd9;" d="M200.428,189.883c7.564-0.874,19.018-2.508,37.57-5.092c-18.558-2.539-30.22-4.07-37.586-5
		c-0.92-7.887-2.502-19.014-5.085-37.574c-2.536,18.562-3.72,29.896-5.005,37.583c-7.413,0.921-19.019,2.508-37.578,5.098
		c18.568,2.537,30.369,4.01,37.586,4.995c0.975,7.1,2.514,19.012,5.11,37.566C197.971,208.902,199.492,197.299,200.428,189.883
		L200.428,189.883z"/>
	<path style="fill:#6b5cd9;" d="M128.635,128.613c14.414-1.664,36.24-4.78,71.596-9.703c-35.363-4.838-57.588-7.756-71.625-9.527
		c-1.755-15.029-4.767-36.235-9.69-71.601c-4.833,35.372-7.086,56.97-9.537,71.617c-14.126,1.754-36.243,4.777-71.609,9.713
		c35.385,4.836,57.872,7.641,71.625,9.519c1.858,13.53,4.788,36.229,9.737,71.585C123.953,164.855,126.851,142.744,128.635,128.613
		L128.635,128.613z"/>
</g>
<g>
</g>
<g>
</g>
<g>
</g>
<g>
</g>
<g>
</g>
<g>
</g>
<g>
</g>
<g>
</g>
<g>
</g>
<g>
</g>
<g>
</g>
<g>
</g>
<g>
</g>
<g>
</g>
<g>
</g>
</svg>
